<svg xmlns="http://www.w3.org/2000/svg" viewBox="0 0 1299.72 374.82"><defs><style>.cls-1{fill:#444;}</style></defs><title>Faipe_InLight@1x</title><g id="Capa_2" data-name="Capa 2"><g id="Capa_1-2" data-name="Capa 1"><path class="cls-1" d="M860.59,153.64H826.13V70.55h-26v131.3H839v7.82H800.12V358.09h10.79v7.82H754.67v-7.82h10.78V70.55H754.67V62.73H860.59Zm-77.8,204.45V70.55h-8.67V358.09ZM843.47,146V70.55H834.8V146Z"/><path class="cls-1" d="M984.06,365.91H927.82v-7.82h10.79l-7.83-87.95H899.7L891,358.09h10.78v7.82H869.26v-7.82H880L910.49,62.73h34.67l28.12,295.36h10.78Zm-53.7-103.39L916,98.67,900.13,262.52Zm25.58,95.57L928.67,70.55H920l27.27,287.54Z"/><path class="cls-1" d="M1049.81,365.91H993.58v-7.82h10.78V70.55H993.58V62.73h56.23v7.82H1039V358.09h10.78Zm-28.12-7.82V70.55H1013V358.09Z"/><path class="cls-1" d="M1176.25,191.91q0,18.18-15.22,31.18t-36.79,13h-15v122H1120v7.82h-56.24v-7.82h10.78V70.55h-10.78V62.73h60.47q21.55,0,36.79,13t15.22,31.19Zm-84.36,166.18V70.55h-8.67V358.09Zm49.68-147.15v-123a17.33,17.33,0,0,0-17.33-17.34h-15V228.27h15a17.31,17.31,0,0,0,17.33-17.33Zm17.34-12.27V100.15q0-17.55-15.43-27.27,6.76,7.83,6.76,21.14V204.8q0,13.33-6.76,21.15Q1158.9,216.23,1158.91,198.67Z"/><path class="cls-1" d="M1299.72,365.91H1191.47v-7.82h10.78V70.55h-10.78V62.73h108.25v90.91H1265V70.55h-28.12v131.3h41v7.82h-41V358.09H1265V275h34.68Zm-80.13-7.82V70.55h-8.67V358.09ZM1282.38,146V70.55h-8.67V146Zm0,212.06V282.82h-8.67v75.27Z"/><path class="cls-1" d="M517.44,374.82H372.66a28.17,28.17,0,0,1-21.86-9.76,29,29,0,0,1-6.23-23.56l14.92-92.76a4.1,4.1,0,0,0-.9-3.67,4.26,4.26,0,0,0-3.84-.86,105.12,105.12,0,0,1-18.06,1.59c-27.09,0-50.95-10.62-67.18-29.91-16.55-19.66-23-45.68-18.24-73.26,9.17-52.93,58-95.85,111.26-97.71a93.14,93.14,0,0,1,43.17,8.6C427.85,20.76,465,0,502.46,0s68.29,20.5,80.91,53.06A109.31,109.31,0,0,1,628,44.92h0c25.54.9,48.15,11.67,63.67,30.32,15.86,19.06,22.45,44,18.57,70.22C702,200.79,650.27,245.8,594.9,245.8a96.42,96.42,0,0,1-17.68-1.61,7.53,7.53,0,0,0-5.49,1.5,9.29,9.29,0,0,0-3.89,5.88l-14.92,92.76C550.17,361.43,534.59,374.82,517.44,374.82ZM355.9,226.29a21.35,21.35,0,0,1,15.19,6.1,21.67,21.67,0,0,1,6,19.18l-14.92,92.76a11.16,11.16,0,0,0,2.2,9.17,10.62,10.62,0,0,0,8.3,3.5H517.44c8.35,0,16.54-7.1,17.89-15.5l14.92-92.76a27,27,0,0,1,11.22-17.61,25.26,25.26,0,0,1,19-4.45A79.66,79.66,0,0,0,594.9,228c46.89,0,90.7-38.19,97.66-85.14,3.14-21.14-2.06-41.1-14.63-56.2-12.24-14.7-30.21-23.2-50.61-23.92A92.46,92.46,0,0,0,582,73.26l-9.93,5.08-2.76-10.81c-7.71-30.2-34-49.71-66.86-49.71-34,0-67.72,20.39-85.93,52L412,77.7l-7.8-4.78c-11.75-7.2-25.91-10.7-41-10.2-44.35,1.56-86.67,38.76-94.33,82.95C265,168,270,188.85,283.14,204.42,295.93,219.61,315,228,336.69,228a86.5,86.5,0,0,0,15-1.32A24.43,24.43,0,0,1,355.9,226.29Z"/><path class="cls-1" d="M168.87,165H18a8.91,8.91,0,1,1,0-17.82H168.87a8.91,8.91,0,0,1,0,17.82Z"/><path class="cls-1" d="M212.09,271.88H8.91a8.91,8.91,0,0,1,0-17.82H212.09a8.91,8.91,0,0,1,0,17.82Z"/><path class="cls-1" d="M269.7,360.58h-166a8.91,8.91,0,0,1,0-17.82h166a8.91,8.91,0,1,1,0,17.82Z"/><path class="cls-1" d="M240.89,55.81H103.67a8.91,8.91,0,0,1,0-17.81H240.89a8.91,8.91,0,1,1,0,17.81Z"/><path class="cls-1" d="M413.42,330a8.69,8.69,0,0,1-1.43-.11,8.92,8.92,0,0,1-7.38-10.21L417.75,238a8.91,8.91,0,0,1,17.59,2.83L422.2,322.46A8.9,8.9,0,0,1,413.42,330Z"/><path class="cls-1" d="M451.92,330a8.57,8.57,0,0,1-1.42-.11,8.91,8.91,0,0,1-7.38-10.21L456.25,238a8.91,8.91,0,0,1,17.59,2.83l-13.13,81.68A8.91,8.91,0,0,1,451.92,330Z"/><path class="cls-1" d="M492.4,330a8.69,8.69,0,0,1-1.43-.11,8.91,8.91,0,0,1-7.38-10.21L496.72,238a8.91,8.91,0,0,1,17.59,2.83l-13.13,81.68A8.91,8.91,0,0,1,492.4,330Z"/><path class="cls-1" d="M546.68,336H355.92a8.91,8.91,0,0,1,0-17.82H546.68a8.91,8.91,0,1,1,0,17.82Z"/></g></g></svg>